<svg xmlns="http://www.w3.org/2000/svg" viewBox="0 0 380 100" width="760" height="200">
  <defs>
    <linearGradient id="vx-gl" x1="0" y1="1" x2="1" y2="0">
      <stop offset="0%" stop-color="#00a878"/>
      <stop offset="100%" stop-color="#0089cc"/>
    </linearGradient>
  </defs>
  <g>
    <line x1="9"  y1="6"  x2="9"  y2="80" stroke="#e63946" stroke-width="1.5"/>
    <rect x="5"  y="14" width="8" height="62" rx="1.5" fill="#e63946"/>
    <line x1="22" y1="14" x2="22" y2="80" stroke="#e63946" stroke-width="1.5"/>
    <rect x="18" y="24" width="8" height="48" rx="1.5" fill="#e63946"/>
    <line x1="35" y1="24" x2="35" y2="80" stroke="#e63946" stroke-width="1.5"/>
    <rect x="31" y="34" width="8" height="36" rx="1.5" fill="#e63946"/>
  </g>
  <line x1="48" y1="44" x2="48" y2="80" stroke="#6b7380" stroke-width="1.5"/>
  <rect x="44" y="54" width="8" height="20" rx="1.5" fill="#6b7380"/>
  <g>
    <line x1="61" y1="32" x2="61" y2="80" stroke="url(#vx-gl)" stroke-width="1.5"/>
    <rect x="57" y="40" width="8" height="34" rx="1.5" fill="url(#vx-gl)"/>
    <line x1="74" y1="20" x2="74" y2="80" stroke="url(#vx-gl)" stroke-width="1.5"/>
    <rect x="70" y="28" width="8" height="46" rx="1.5" fill="url(#vx-gl)"/>
    <line x1="87" y1="6"  x2="87" y2="80" stroke="url(#vx-gl)" stroke-width="1.5"/>
    <rect x="83" y="14" width="8" height="62" rx="1.5" fill="url(#vx-gl)"/>
  </g>
  <text x="110" y="50" font-family="-apple-system, BlinkMacSystemFont, 'Segoe UI', Inter, sans-serif" font-size="28" font-weight="700" fill="#0a0d12" letter-spacing="2">VERTEX</text>
  <text x="111" y="68" font-family="-apple-system, BlinkMacSystemFont, 'Segoe UI', Inter, sans-serif" font-size="9" font-weight="500" fill="#6b7380" letter-spacing="4">WEB TRADING PLATFORM</text>
</svg>
